<?xml version="1.0" encoding="UTF-8"?>
<svg version="1.1" xmlns="http://www.w3.org/2000/svg" width="1024" height="1024">
<path d="M0 0 C337.92 0 675.84 0 1024 0 C1024 337.92 1024 675.84 1024 1024 C686.08 1024 348.16 1024 0 1024 C0 686.08 0 348.16 0 0 Z " fill="#08549D" transform="translate(0,0)"/>
<path d="M0 0 C3.50818198 0.00535823 7.01623597 0.00003085 10.52441406 -0.00634766 C47.70648705 -0.02038898 84.36939075 6.59711842 119.35253906 19.34521484 C121.34767409 20.06908152 123.35075154 20.76044442 125.36035156 21.44287109 C154.60785688 31.76552003 183.21767548 47.05973019 208.07910156 65.56787109 C208.718396 66.0410376 209.35769043 66.5142041 210.01635742 67.00170898 C218.5677368 73.36164252 226.74035555 80.10885245 234.78442383 87.0949707 C237.2939973 89.26776005 239.75064992 91.28640334 242.51660156 93.13037109 C242.51660156 93.79037109 242.51660156 94.45037109 242.51660156 95.13037109 C243.04769531 95.33662109 243.57878906 95.54287109 244.12597656 95.75537109 C247.52433592 97.70998301 250.02716084 100.35160826 252.76660156 103.13037109 C253.59804687 103.95021484 253.59804687 103.95021484 254.44628906 104.78662109 C258.51660156 108.87698439 258.51660156 108.87698439 258.51660156 111.13037109 C259.50660156 111.46037109 260.49660156 111.79037109 261.51660156 112.13037109 C263.05957031 113.62646484 263.05957031 113.62646484 264.70410156 115.56787109 C265.32027344 116.29490234 265.93644531 117.02193359 266.57128906 117.77099609 C272.19790002 124.5952391 277.64338568 131.5513453 283.01586914 138.57641602 C284.90216156 141.04187021 286.80110511 143.46471114 288.81347656 145.82958984 C290.51660156 148.13037109 290.51660156 148.13037109 290.51660156 151.13037109 C291.17660156 151.13037109 291.83660156 151.13037109 292.51660156 151.13037109 C293.68652344 152.58886719 293.68652344 152.58886719 294.98535156 154.65380859 C295.46875 155.41773926 295.95214844 156.18166992 296.45019531 156.96875 C296.96710937 157.80583496 297.48402344 158.64291992 298.01660156 159.50537109 C298.55414062 160.36952637 299.09167969 161.23368164 299.64550781 162.12402344 C322.47400466 199.12588668 339.26074323 239.33801316 347.51660156 282.13037109 C347.722771 283.17596191 347.722771 283.17596191 347.93310547 284.24267578 C351.90910934 304.62261571 352.86790795 324.65402475 352.83227539 345.36816406 C352.82765505 348.28238403 352.83453694 351.19618556 352.8527832 354.11035156 C353.00087912 377.99337928 351.22148816 400.84560321 345.94238281 424.18847656 C345.3736736 426.78223407 344.90585548 429.38896301 344.45410156 432.00537109 C342.99950549 440.20980332 341.31780338 448.23882993 338.31323242 456.02075195 C337.51483019 458.13506199 336.7882426 460.26194146 336.07910156 462.40771484 C324.45381678 497.30238033 307.26346544 529.53414937 285.80273438 559.29931641 C284.57735971 561.04387031 283.43097883 562.82212825 282.29003906 564.62255859 C281.70480469 565.45013672 281.11957031 566.27771484 280.51660156 567.13037109 C279.85660156 567.13037109 279.19660156 567.13037109 278.51660156 567.13037109 C278.18789062 567.92121094 278.18789062 567.92121094 277.85253906 568.72802734 C276.0206928 572.02213686 273.60720589 574.74078013 271.14160156 577.56787109 C270.61211914 578.17969238 270.08263672 578.79151367 269.53710938 579.421875 C251.31914683 600.35692883 251.31914683 600.35692883 244.51660156 606.13037109 C243.85660156 606.13037109 243.19660156 606.13037109 242.51660156 606.13037109 C242.18660156 607.12037109 241.85660156 608.11037109 241.51660156 609.13037109 C239.09151781 611.71024742 236.24195662 613.87663777 233.51660156 616.13037109 C232.94925293 616.6032959 232.3819043 617.0762207 231.79736328 617.56347656 C222.64903729 625.17558769 213.3215607 632.38670128 203.51660156 639.13037109 C202.94683594 639.52788574 202.37707031 639.92540039 201.79003906 640.33496094 C159.73027247 669.62826811 111.20663192 688.29118432 60.89160156 697.31787109 C59.60600342 697.55050659 59.60600342 697.55050659 58.29443359 697.7878418 C40.95344959 700.74241057 23.87768507 701.45213304 6.31103516 701.39111328 C2.65412746 701.38040776 -1.00228694 701.39106168 -4.65917969 701.40380859 C-23.98559508 701.41711093 -42.76563336 700.25748249 -61.73339844 696.44287109 C-62.37962158 696.31542511 -63.02584473 696.18797913 -63.69165039 696.05667114 C-76.82721046 693.45687489 -89.67872179 690.03880396 -102.48339844 686.13037109 C-103.76985409 685.7527578 -105.05631206 685.37515239 -106.34277344 684.99755859 C-126.80903516 678.63132511 -146.82720945 669.6125147 -165.48339844 659.13037109 C-166.21083252 658.73019775 -166.9382666 658.33002441 -167.68774414 657.91772461 C-181.18221288 650.49148216 -194.14405005 642.34984837 -206.48339844 633.13037109 C-207.01739258 632.73527344 -207.55138672 632.34017578 -208.1015625 631.93310547 C-231.663804 614.45098093 -253.21788438 594.08910751 -271.48339844 571.13037109 C-272.28777344 570.15583984 -273.09214844 569.18130859 -273.92089844 568.17724609 C-292.85744385 545.01625658 -308.37283188 518.94685356 -319.60351562 491.25390625 C-320.68346635 488.64752128 -321.88335316 486.10885211 -323.10839844 483.56787109 C-326.88773377 475.35759088 -329.61534277 466.6902043 -332.48339844 458.13037109 C-332.83966309 457.0755957 -332.83966309 457.0755957 -333.203125 455.99951172 C-344.09108348 423.51202442 -347.86404811 390.83729325 -347.85400391 356.71948242 C-347.85384244 353.8045135 -347.86758769 350.89018039 -347.89501953 347.9753418 C-348.13093995 322.47049628 -346.40754461 297.55490356 -340.17089844 272.69287109 C-339.8723999 271.46391113 -339.57390137 270.23495117 -339.26635742 268.96875 C-334.68708155 250.46199368 -328.95490336 232.66739976 -321.48339844 215.13037109 C-321.01812744 214.02048828 -321.01812744 214.02048828 -320.54345703 212.88818359 C-305.18050205 176.3615598 -283.68989682 142.59351512 -256.70996094 113.54833984 C-254.00050747 110.60596845 -251.41933862 107.56554934 -248.85839844 104.49365234 C-247.48339844 103.13037109 -247.48339844 103.13037109 -245.48339844 103.13037109 C-245.11214844 102.26412109 -245.11214844 102.26412109 -244.73339844 101.38037109 C-243.30039855 98.8009713 -241.69915167 97.06915517 -239.48339844 95.13037109 C-238.82339844 95.13037109 -238.16339844 95.13037109 -237.48339844 95.13037109 C-237.48339844 94.47037109 -237.48339844 93.81037109 -237.48339844 93.13037109 C-235.99601608 91.7765496 -234.43909293 90.49897224 -232.85839844 89.25537109 C-228.96718537 86.15136886 -225.15625925 82.9986505 -221.41381836 79.71728516 C-214.10523541 73.32496243 -206.49572024 67.60534829 -198.48339844 62.13037109 C-197.88414551 61.7154541 -197.28489258 61.30053711 -196.66748047 60.87304688 C-187.9756771 54.86204433 -179.08324803 49.39008996 -169.78271484 44.37255859 C-168.17478697 43.50388828 -166.57057956 42.62831185 -164.96923828 41.74755859 C-142.82752047 29.59418862 -119.74334396 20.15086943 -95.48339844 13.13037109 C-94.78859375 12.92863281 -94.09378906 12.72689453 -93.37792969 12.51904297 C-89.10170025 11.29421478 -84.80385192 10.18740512 -80.48339844 9.13037109 C-79.52046875 8.88939697 -79.52046875 8.88939697 -78.53808594 8.64355469 C-68.66488489 6.19669719 -58.72895909 4.45033777 -48.67089844 2.94287109 C-47.56262695 2.7759375 -46.45435547 2.60900391 -45.3125 2.43701172 C-30.15788407 0.24826184 -15.28958325 -0.02779924 0 0 Z " fill="#FED800" transform="translate(509.4833984375,161.86962890625)"/>
<path d="M0 0 C1.13236084 0.24943359 1.13236084 0.24943359 2.28759766 0.50390625 C21.68947743 4.90324074 40.51091089 11.51844372 58 21 C58.96679688 21.48984375 59.93359375 21.9796875 60.9296875 22.484375 C104.45217121 44.93945355 139.31930152 89.9205657 154.40234375 136.16015625 C170.19333806 187.86273842 164.99004671 247.10081956 140 295 C114.95061274 341.7424221 72.11839649 376.22585283 21.69897461 392.06298828 C14.7519797 394.15485561 7.73164205 395.79761086 0.625 397.25 C-0.17083496 397.41330811 -0.96666992 397.57661621 -1.78662109 397.74487305 C-12.76135902 399.87424901 -23.70213743 400.18650087 -34.84960938 400.18530273 C-37.10045679 400.1874763 -39.35080203 400.20566441 -41.6015625 400.22460938 C-55.71564796 400.28059509 -69.51446527 398.88013841 -83.3125 395.8125 C-84.76233276 395.49104004 -84.76233276 395.49104004 -86.24145508 395.16308594 C-114.26714177 388.68098551 -141.58608105 376.08949437 -164 358 C-165.5159375 356.78957031 -165.5159375 356.78957031 -167.0625 355.5546875 C-179.52397219 345.41399867 -191.51845778 334.00211486 -201 321 C-201.38317383 320.48791992 -201.76634766 319.97583984 -202.16113281 319.44824219 C-208.46723599 311.01880575 -214.12123457 302.3392842 -219 293 C-219.36480469 292.30310059 -219.72960937 291.60620117 -220.10546875 290.88818359 C-244.78030543 243.02279008 -247.62545668 185.13525709 -231.8125 134.0703125 C-230.65500749 130.65410197 -229.37638369 127.3342343 -228 124 C-227.69223633 123.25331055 -227.38447266 122.50662109 -227.06738281 121.73730469 C-216.34383215 96.0435551 -200.62565797 74.62565797 -181 55 C-179.92956589 53.88548022 -178.86066372 52.76948787 -177.79296875 51.65234375 C-165.23702772 38.63616405 -151.80517139 28.33922633 -135.78417969 19.93896484 C-134.21216433 19.11165627 -132.65551932 18.25528092 -131.1015625 17.39453125 C-92.9178499 -3.01023207 -42.27065503 -9.54165419 0 0 Z " fill="#0E8A3A" transform="translate(551,314)"/>
<path d="M0 0 C1.27393028 3.67142244 0.74081927 6.5053133 0.07910156 10.2902832 C-1.10599013 18.00776016 -1.29213139 25.56272713 -1.265625 33.35546875 C-1.26697888 34.79209966 -1.26892534 36.22873012 -1.27142334 37.6653595 C-1.27434548 40.65626446 -1.27017533 43.64704872 -1.26074219 46.63793945 C-1.24939975 50.41193133 -1.2560748 54.18563951 -1.26762867 57.95962143 C-1.54976943 85.19087757 -1.54976943 85.19087757 2.73046875 111.9921875 C3.06845653 114.50995156 2.60209297 116.54892651 2 119 C1.67 119 1.34 119 1 119 C0.67 115.37 0.34 111.74 0 108 C-0.33 110.97 -0.66 113.94 -1 117 C-1.66 116.67 -2.32 116.34 -3 116 C-5.39404042 105.79176754 -4.12542858 94.01054981 -4.09765625 83.58203125 C-4.09578827 81.51267023 -4.09436616 79.44330877 -4.09336853 77.37394714 C-4.08957325 71.96042635 -4.07976888 66.54693292 -4.06866455 61.13342285 C-4.05838577 55.59611379 -4.05385713 50.05880025 -4.04882812 44.52148438 C-4.03814359 33.68097764 -4.02110358 22.84049111 -4 12 C-3.34 12 -2.68 12 -2 12 C-1.93941406 11.21753906 -1.87882813 10.43507813 -1.81640625 9.62890625 C-1.73261719 8.61699219 -1.64882812 7.60507812 -1.5625 6.5625 C-1.48128906 5.55316406 -1.40007812 4.54382813 -1.31640625 3.50390625 C-1 1 -1 1 0 0 Z " fill="#16548C" transform="translate(164,462)"/>
<path d="M0 0 C0.495 0.99 0.495 0.99 1 2 C3.64 2 6.28 2 9 2 C5.62969908 4.24686728 3.60696958 4.53007935 -0.375 5.0625 C-1.49648438 5.21847656 -2.61796875 5.37445312 -3.7734375 5.53515625 C-13.76138602 6.70921743 -23.7301585 7.15772559 -33.78125 7.16796875 C-35.54341858 7.17296135 -35.54341858 7.17296135 -37.34118652 7.17805481 C-39.81176365 7.18308155 -42.28234746 7.18546446 -44.75292969 7.18530273 C-48.46300932 7.18747831 -52.17278567 7.20565052 -55.8828125 7.22460938 C-66.96925303 7.25135915 -77.98525612 7.13116504 -89.03125 6.11328125 C-89.88964478 6.03554977 -90.74803955 5.9578183 -91.63244629 5.87773132 C-95.58207053 5.46124598 -98.47843453 4.93235012 -102 3 C-98.62472444 3.13984955 -95.24985869 3.28795269 -91.875 3.4375 C-90.92367188 3.47681641 -89.97234375 3.51613281 -88.9921875 3.55664062 C-88.0640625 3.59853516 -87.1359375 3.64042969 -86.1796875 3.68359375 C-85.33132324 3.72025146 -84.48295898 3.75690918 -83.60888672 3.79467773 C-81 4 -81 4 -78.33520508 4.51147461 C-73.70090854 5.1902849 -69.13450653 5.14261592 -64.45703125 5.1328125 C-62.94891121 5.13424759 -62.94891121 5.13424759 -61.4103241 5.13571167 C-59.29316139 5.13639011 -57.17599657 5.13455934 -55.05883789 5.13037109 C-51.81326663 5.12500127 -48.5678327 5.13033612 -45.32226562 5.13671875 C-43.26302053 5.13605824 -41.20377552 5.13477763 -39.14453125 5.1328125 C-37.68669975 5.13584885 -37.68669975 5.13584885 -36.19941711 5.13894653 C-34.84737434 5.13421829 -34.84737434 5.13421829 -33.46801758 5.12939453 C-32.67559158 5.12859894 -31.88316559 5.12780334 -31.06672668 5.12698364 C-28.80134016 5.07680969 -28.80134016 5.07680969 -26 4 C-25.67 3.01 -25.34 2.02 -25 1 C-22.36 1.33 -19.72 1.66 -17 2 C-17.33 2.66 -17.66 3.32 -18 4 C-15.74928094 3.9127395 -13.49936612 3.80455885 -11.25 3.6875 C-9.99703125 3.62949219 -8.7440625 3.57148437 -7.453125 3.51171875 C-3.96923537 2.99544099 -2.52110204 2.3746744 0 0 Z " fill="#ECDD32" transform="translate(561,856)"/>
<path d="M0 0 C0.33 0 0.66 0 1 0 C1 16.17 1 32.34 1 49 C1.66 49 2.32 49 3 49 C3.22211116 50.93596892 3.42722992 52.87389328 3.625 54.8125 C3.74101562 55.89144531 3.85703125 56.97039063 3.9765625 58.08203125 C4 61 4 61 2 64 C1.67 62.35 1.34 60.7 1 59 C0.841943 66.76015972 1.33495303 74.39607573 2 82.125 C2.14308594 83.84589844 2.14308594 83.84589844 2.2890625 85.6015625 C2.52237983 88.40137049 2.7594294 91.20080753 3 94 C-5.587161 81.11925851 -1.2633674 55.13371392 -1.19561768 39.92816162 C-1.18469757 36.82988902 -1.18515223 33.73165989 -1.18575573 30.63337135 C-1.18548385 27.63248458 -1.18000319 24.6316261 -1.17275429 21.63074875 C-1.16958886 20.20584704 -1.16760522 18.78094217 -1.16686058 17.35603714 C-1.16468643 15.37618083 -1.15513409 13.3963368 -1.14526367 11.41650391 C-1.14145187 10.29466705 -1.13764008 9.1728302 -1.13371277 8.01699829 C-1.01027729 5.23188936 -0.63373477 2.70957906 0 0 Z " fill="#EAD92F" transform="translate(163,475)"/>
<path d="M0 0 C0.80824219 0.10183594 1.61648438 0.20367188 2.44921875 0.30859375 C3.06410156 0.39238281 3.67898438 0.47617187 4.3125 0.5625 C3.69375 0.84996094 3.075 1.13742187 2.4375 1.43359375 C0.16882432 2.49923578 0.16882432 2.49923578 -1.6875 4.625 C-6.7848483 7.91703744 -13.46798415 8.21668319 -19.37890625 7.015625 C-22.56527966 6.39021161 -24.65136009 7.50914534 -27.6875 8.5625 C-31.0625 8.6875 -31.0625 8.6875 -33.6875 8.5625 C-33.6875 8.2325 -33.6875 7.9025 -33.6875 7.5625 C-32.91559326 7.35568604 -32.14368652 7.14887207 -31.34838867 6.93579102 C-27.85700732 5.99979696 -24.36600005 5.06241515 -20.875 4.125 C-19.66005859 3.79951172 -18.44511719 3.47402344 -17.19335938 3.13867188 C-16.02998047 2.82607422 -14.86660156 2.51347656 -13.66796875 2.19140625 C-12.59442139 1.90338135 -11.52087402 1.61535645 -10.41479492 1.31860352 C-3.84808199 -0.50192374 -3.84808199 -0.50192374 0 0 Z " fill="#17538A" transform="translate(620.6875,847.4375)"/>
<path d="M0 0 C0.33 0 0.66 0 1 0 C1 2.31 1 4.62 1 7 C1.66 7 2.32 7 3 7 C3.125 14.75 3.125 14.75 2 17 C1.72641885 19.85306062 1.55374758 22.70570456 1.37890625 25.56640625 C1.25386719 26.36949219 1.12882812 27.17257812 1 28 C0.34 28.33 -0.32 28.66 -1 29 C-1.33 26.03 -1.66 23.06 -2 20 C-2.66 20.33 -3.32 20.66 -4 21 C-3.39700836 13.76410027 -1.8849413 7.00629124 0 0 Z " fill="#1B892F" transform="translate(316,459)"/>
<path d="M0 0 C1.17151366 3.4877988 0.78702518 5.92484313 0.1015625 9.5078125 C-1.75322088 21.53117297 -1.47316704 33.73627108 -1.625 45.875 C-1.66324974 48.4127728 -1.70230534 50.95053358 -1.7421875 53.48828125 C-1.83742327 59.6587463 -1.92268434 65.82928574 -2 72 C-2.33 72 -2.66 72 -3 72 C-3.33 52.2 -3.66 32.4 -4 12 C-3.34 12 -2.68 12 -2 12 C-1.93941406 11.21753906 -1.87882813 10.43507813 -1.81640625 9.62890625 C-1.73261719 8.61699219 -1.64882812 7.60507812 -1.5625 6.5625 C-1.48128906 5.55316406 -1.40007812 4.54382813 -1.31640625 3.50390625 C-1 1 -1 1 0 0 Z " fill="#4A6C6E" transform="translate(164,462)"/>
<path d="M0 0 C2 2 2 2 2 6 C2.66 6 3.32 6 4 6 C6.88911647 12.81006026 8.25816476 18.64230431 8 26 C8.66 26.33 9.32 26.66 10 27 C9.34 27 8.68 27 8 27 C8 28.98 8 30.96 8 33 C7.67 33 7.34 33 7 33 C6.85900879 32.40574219 6.71801758 31.81148438 6.57275391 31.19921875 C5.9239933 28.4660291 5.27450126 25.73301374 4.625 23 C4.40328125 22.06542969 4.1815625 21.13085938 3.953125 20.16796875 C3.73398437 19.24628906 3.51484375 18.32460938 3.2890625 17.375 C3.07282227 16.46363281 2.85658203 15.55226563 2.63378906 14.61328125 C2.06181188 12.25486687 1.45313227 9.90936406 0.8359375 7.5625 C0 4 0 4 0 0 Z " fill="#0C4C99" transform="translate(849,411)"/>
<path d="M0 0 C0.66 0 1.32 0 2 0 C2 0.66 2 1.32 2 2 C2.99 1.67 3.98 1.34 5 1 C4.29843593 8.15595346 2.69214979 15.01855181 1 22 C0.67 22 0.34 22 0 22 C-1.53380048 14.71444771 -1.53380048 7.28555229 0 0 Z " fill="#FDD707" transform="translate(849,590)"/>
<path d="M0 0 C0.33 0 0.66 0 1 0 C1.50954907 3.33194499 2.00587014 6.66573634 2.5 10 C2.64308594 10.93457031 2.78617188 11.86914062 2.93359375 12.83203125 C3.7350261 18.28940391 4.15609327 23.48470461 4 29 C0.84228577 25.84228577 1.37493227 22.37420978 1 18 C0.67 21.63 0.34 25.26 0 29 C-0.33 29 -0.66 29 -1 29 C-1.10371911 19.27345227 -1.04518445 9.68662016 0 0 Z " fill="#E0CF32" transform="translate(857,450)"/>
<path d="M0 0 C0.66 0.66 1.32 1.32 2 2 C1.58109522 7.27288079 0.2594139 12.33201628 -1.0625 17.4375 C-1.24876953 18.16904297 -1.43503906 18.90058594 -1.62695312 19.65429688 C-2.0813758 21.43703198 -2.54022466 23.21863787 -3 25 C-3.33 25 -3.66 25 -4 25 C-6.45260856 14.92489576 -6.45260856 14.92489576 -4.5625 11.0625 C-4.046875 10.381875 -3.53125 9.70125 -3 9 C-3.20643199 6.74671588 -3.20643199 6.74671588 -4 5 C-3.34 5 -2.68 5 -2 5 C-2 5.99 -2 6.98 -2 8 C-1.34 8 -0.68 8 0 8 C0 5.36 0 2.72 0 0 Z " fill="#12508C" transform="translate(173,411)"/>
<path d="M0 0 C0.33 0 0.66 0 1 0 C1 1.98 1 3.96 1 6 C1.66 6 2.32 6 3 6 C4.16306443 9.54950034 3.92365049 12.55823948 3.5625 16.25 C3.46066406 17.32765625 3.35882813 18.4053125 3.25390625 19.515625 C3.17011719 20.33546875 3.08632812 21.1553125 3 22 C2.01 22 1.02 22 0 22 C-1.87744205 14.72491206 -1.06755357 7.3394308 0 0 Z " fill="#FCD505" transform="translate(165,458)"/>
<path d="M0 0 C1.23363281 0.01353516 1.23363281 0.01353516 2.4921875 0.02734375 C4.49492083 0.05063135 6.49750154 0.08649041 8.5 0.125 C8.5 0.455 8.5 0.785 8.5 1.125 C4.8775765 1.80618591 1.25173859 2.46720918 -2.375 3.125 C-3.38820313 3.31578125 -4.40140625 3.5065625 -5.4453125 3.703125 C-11.8723307 4.85669237 -17.97260057 5.38558928 -24.5 5.125 C-24.5 4.135 -24.5 3.145 -24.5 2.125 C-23.51 2.16625 -22.52 2.2075 -21.5 2.25 C-18.604493 2.26154739 -16.7330056 1.91522375 -13.84375 1.125 C-9.19558668 -0.08986087 -4.77844056 -0.10117219 0 0 Z " fill="#104C95" transform="translate(457.5,163.875)"/>
<path d="M0 0 C0.66 0 1.32 0 2 0 C2.33 8.25 2.66 16.5 3 25 C2.67 25 2.34 25 2 25 C2 22.03 2 19.06 2 16 C1.34 16 0.68 16 0 16 C0 18.97 0 21.94 0 25 C-0.66 25.33 -1.32 25.66 -2 26 C-2.3189892 17.22779709 -1.11636806 8.68175521 0 0 Z " fill="#034FB3" transform="translate(861,553)"/>
<path d="M0 0 C5.40750658 2.90636013 10.70097294 5.98387458 15.9375 9.1875 C17.03964844 9.86167969 18.14179688 10.53585937 19.27734375 11.23046875 C22 13 22 13 24 15 C21.6568787 14.74438677 19.32156597 14.40729228 17 14 C16.67 13.34 16.34 12.68 16 12 C14.68 12 13.36 12 12 12 C12 11.01 12 10.02 12 9 C10.02 9 8.04 9 6 9 C6 8.01 6 7.02 6 6 C5.01 6.33 4.02 6.66 3 7 C2.01 6.67 1.02 6.34 0 6 C0 5.34 0 4.68 0 4 C0.66 4 1.32 4 2 4 C2 3.34 2 2.68 2 2 C1.34 2 0.68 2 0 2 C0 1.34 0 0.68 0 0 Z " fill="#114D92" transform="translate(310,800)"/>
<path d="M0 0 C-3.04097545 2.02731696 -4.11355985 2.31797676 -7.60546875 2.6328125 C-8.50716797 2.71660156 -9.40886719 2.80039063 -10.33789062 2.88671875 C-11.27826172 2.96535156 -12.21863281 3.04398438 -13.1875 3.125 C-14.10853516 3.21136719 -15.02957031 3.29773438 -15.97851562 3.38671875 C-21.34166047 3.86631864 -26.6163611 4.0885675 -32 4 C-32 3.67 -32 3.34 -32 3 C-21.44035268 -0.37010021 -10.95424375 -0.12096711 0 0 Z " fill="#044CA8" transform="translate(483,161)"/>
<path d="M0 0 C0.66 0.33 1.32 0.66 2 1 C1.175 1.598125 0.35 2.19625 -0.5 2.8125 C-1.325 3.534375 -2.15 4.25625 -3 5 C-3 5.99 -3 6.98 -3 8 C-4.3125 9.82421875 -4.3125 9.82421875 -6 11.6875 C-6.556875 12.31011719 -7.11375 12.93273437 -7.6875 13.57421875 C-8.120625 14.04472656 -8.55375 14.51523437 -9 15 C-9.66 14.67 -10.32 14.34 -11 14 C-10.67 13.34 -10.34 12.68 -10 12 C-10.78375 12.515625 -11.5675 13.03125 -12.375 13.5625 C-13.24125 14.036875 -14.1075 14.51125 -15 15 C-15.66 14.67 -16.32 14.34 -17 14 C-11.54006063 9.02033308 -6.00073223 4.31660302 0 0 Z " fill="#17852F" transform="translate(398,344)"/>
<path d="M0 0 C3.3 0.66 6.6 1.32 10 2 C10 2.33 10 2.66 10 3 C7.50145233 3.65192688 5.0013863 4.29663064 2.5 4.9375 C1.45585937 5.21110352 1.45585937 5.21110352 0.390625 5.49023438 C-4.39837494 6.70965566 -9.08537471 7.47422365 -14 8 C-10.40723724 4.15061133 -8.11285533 2.08126367 -2.75 1.875 C-1.38875 1.936875 -1.38875 1.936875 0 2 C0 1.34 0 0.68 0 0 Z " fill="#0F4D98" transform="translate(424,168)"/>
<path d="M0 0 C0.33 0.33 0.66 0.66 1 1 C2.32594105 1.36162029 3.65938457 1.69728039 5 2 C1.90045712 3.03526249 -1.20523461 4.05067567 -4.3125 5.0625 C-5.63411133 5.50432617 -5.63411133 5.50432617 -6.98242188 5.95507812 C-7.82998047 6.22900391 -8.67753906 6.50292969 -9.55078125 6.78515625 C-10.33106689 7.04176025 -11.11135254 7.29836426 -11.9152832 7.56274414 C-14 8 -14 8 -17 7 C-14.09399739 5.74335022 -12.20395416 5 -9 5 C-9 4.34 -9 3.68 -9 3 C-9.66 3 -10.32 3 -11 3 C-10.67 2.01 -10.34 1.02 -10 0 C-6.681572 -1.659214 -3.60735024 -0.57259528 0 0 Z " fill="#F9DC13" transform="translate(627,841)"/>
<path d="M0 0 C7.52592433 0.6377902 14.67098882 2.19889833 22 4 C22 4.33 22 4.66 22 5 C20.02 5.33 18.04 5.66 16 6 C16 5.34 16 4.68 16 4 C12.58343976 3.83322718 12.58343976 3.83322718 9 4 C8.34 4.66 7.68 5.32 7 6 C3.375 5.625 3.375 5.625 0 5 C0 3.35 0 1.7 0 0 Z " fill="#F1DB1E" transform="translate(585,170)"/>
<path d="M0 0 C24.255 0.495 24.255 0.495 49 1 C49 1.33 49 1.66 49 2 C33.16 2.33 17.32 2.66 1 3 C0.67 2.01 0.34 1.02 0 0 Z " fill="#325A61" transform="translate(479,160)"/>
<path d="M0 0 C2.64 0 5.28 0 8 0 C8 0.66 8 1.32 8 2 C8.66 1.67 9.32 1.34 10 1 C12.6723621 0.86584528 15.32250488 0.95681459 18 1 C14.89724263 3.06850491 12.5900783 3.78558082 9 4.6875 C7.948125 4.95949219 6.89625 5.23148438 5.8125 5.51171875 C3 6 3 6 0 5 C0 3.33333333 0 1.66666667 0 0 Z " fill="#F3DB20" transform="translate(592,848)"/>
<path d="M0 0 C5.54808173 2.36516863 10.81716353 4.91235274 16 8 C16 8.33 16 8.66 16 9 C13.36 9.33 10.72 9.66 8 10 C7.67 9.01 7.34 8.02 7 7 C6.34 7 5.68 7 5 7 C5 6.34 5 5.68 5 5 C3.68 5 2.36 5 1 5 C0.67 3.35 0.34 1.7 0 0 Z " fill="#F4DC22" transform="translate(667,198)"/>
<path d="M0 0 C0.66 0.99 1.32 1.98 2 3 C1.67 3.99 1.34 4.98 1 6 C-1.0625 6.6875 -1.0625 6.6875 -3 7 C-3.103125 8.258125 -3.20625 9.51625 -3.3125 10.8125 C-3.64858808 13.60499657 -3.80025876 14.74433121 -5.5625 17 C-6.036875 17.33 -6.51125 17.66 -7 18 C-7.99 17.67 -8.98 17.34 -10 17 C-8.51364884 12.78345644 -6.38750841 9.37521395 -3.875 5.6875 C-3.15054688 4.61886719 -2.42609375 3.55023438 -1.6796875 2.44921875 C-0.84824219 1.23685547 -0.84824219 1.23685547 0 0 Z " fill="#EBD828" transform="translate(226,308)"/>
<path d="M0 0 C0.33 0.66 0.66 1.32 1 2 C-0.00488478 4.68954455 -1.07119883 7.26314644 -2.25 9.875 C-2.71986328 10.95587891 -2.71986328 10.95587891 -3.19921875 12.05859375 C-4.81298663 15.69459358 -6.40398404 18.93926514 -9 22 C-9.33 20.02 -9.66 18.04 -10 16 C-9.01 16.33 -8.02 16.66 -7 17 C-7 16.01 -7 15.02 -7 14 C-7.66 14 -8.32 14 -9 14 C-9 13.01 -9 12.02 -9 11 C-7.68 11 -6.36 11 -5 11 C-4.34 7.7 -3.68 4.4 -3 1 C-2.01 0.67 -1.02 0.34 0 0 Z " fill="#168129" transform="translate(700,585)"/>
<path d="M0 0 C0.33 0 0.66 0 1 0 C1 2.97 1 5.94 1 9 C1.66 9 2.32 9 3 9 C3 6.36 3 3.72 3 1 C3.66 0.67 4.32 0.34 5 0 C5.33693273 6.96327638 4.3030887 12.43345544 2 19 C1.67 19 1.34 19 1 19 C0.93941406 18.38511719 0.87882813 17.77023437 0.81640625 17.13671875 C0.73261719 16.32847656 0.64882813 15.52023437 0.5625 14.6875 C0.48128906 13.88699219 0.40007813 13.08648438 0.31640625 12.26171875 C0.04734307 9.83912821 0.04734307 9.83912821 -1 7 C-0.72230092 4.6593935 -0.39460023 2.32375692 0 0 Z " fill="#058D48" transform="translate(704,545)"/>
<path d="M0 0 C0.66 0.33 1.32 0.66 2 1 C-0.01606525 5.81387009 -3.36005129 7.86046809 -8 10 C-11.5 10.3125 -11.5 10.3125 -14 10 C-11.19533807 7.00618646 -8.38815731 4.8006379 -4.875 2.6875 C-4.00617188 2.15511719 -3.13734375 1.62273437 -2.2421875 1.07421875 C-1.50226563 0.71972656 -0.76234375 0.36523438 0 0 Z " fill="#EBD521" transform="translate(331,211)"/>
<path d="M0 0 C0.33 0.99 0.66 1.98 1 3 C1.7425 2.938125 2.485 2.87625 3.25 2.8125 C6.50334985 3.03431931 7.54301092 3.9525091 10 6 C10.99 6.33 11.98 6.66 13 7 C14.70586575 8.62652316 16.3777546 10.29006566 18 12 C17.67 12.66 17.34 13.32 17 14 C15.71416016 13.20335937 15.71416016 13.20335937 14.40234375 12.390625 C8.65217974 8.83551995 2.90441537 5.29548765 -3 2 C-2.01 1.34 -1.02 0.68 0 0 Z " fill="#1F5487" transform="translate(683,203)"/>
<path d="M0 0 C0.33 0.99 0.66 1.98 1 3 C-4.59962003 5.8505108 -10.19137441 8.60078508 -16 11 C-16.66 10.34 -17.32 9.68 -18 9 C-15.37785672 7.49480613 -12.75255792 5.99568681 -10.125 4.5 C-9.37863281 4.07074219 -8.63226562 3.64148438 -7.86328125 3.19921875 C-7.14785156 2.79316406 -6.43242188 2.38710938 -5.6953125 1.96875 C-5.03547363 1.59169922 -4.37563477 1.21464844 -3.69580078 0.82617188 C-2 0 -2 0 0 0 Z " fill="#114F93" transform="translate(695,813)"/>
<path d="M0 0 C0.33 1.32 0.66 2.64 1 4 C1.66 4 2.32 4 3 4 C2.57316761 5.58624235 2.13303842 7.1689098 1.6875 8.75 C1.44386719 9.63171875 1.20023438 10.5134375 0.94921875 11.421875 C-0.02125331 14.05772505 -1.21005644 15.85407326 -3 18 C-3.33 16.02 -3.66 14.04 -4 12 C-3.34 12 -2.68 12 -2 12 C-2.3403125 10.700625 -2.3403125 10.700625 -2.6875 9.375 C-3.0632763 5.31661591 -2.05257931 3.44833324 0 0 Z " fill="#F4DB1F" transform="translate(836,636)"/>
<path d="M0 0 C0.93619813 3.15506142 1.1057123 5.96586502 1.0625 9.25 C1.05347656 10.14203125 1.04445313 11.0340625 1.03515625 11.953125 C1.02355469 12.62859375 1.01195312 13.3040625 1 14 C0.34 14 -0.32 14 -1 14 C-1.33 14.66 -1.66 15.32 -2 16 C-2.33 15.67 -2.66 15.34 -3 15 C-3.99 15.99 -4.98 16.98 -6 18 C-4.23536928 11.89262558 -2.30442525 5.92566493 0 0 Z " fill="#E8DA19" transform="translate(703,579)"/>
<path d="M0 0 C1.32 0 2.64 0 4 0 C4.66 0.66 5.32 1.32 6 2 C6.66 2 7.32 2 8 2 C7.34 3.65 6.68 5.3 6 7 C7.98 7.66 9.96 8.32 12 9 C11.34 10.65 10.68 12.3 10 14 C6.15483385 10.45061586 2.84877917 6.38711992 0 2 C0 1.34 0 0.68 0 0 Z " fill="#0E4D90" transform="translate(785,290)"/>
<path d="M0 0 C1 3 1 3 1 5 C-0.32 5.33 -1.64 5.66 -3 6 C-3 6.66 -3 7.32 -3 8 C-3.66 8 -4.32 8 -5 8 C-5 8.66 -5 9.32 -5 10 C-5.66 10 -6.32 10 -7 10 C-7 10.99 -7 11.98 -7 13 C-7.61875 13.268125 -8.2375 13.53625 -8.875 13.8125 C-11.2995233 14.95556848 -11.2995233 14.95556848 -13 18 C-13.66 17.67 -14.32 17.34 -15 17 C-13.06402271 14.72785301 -11.12628828 12.45724637 -9.1875 10.1875 C-8.64029297 9.54490234 -8.09308594 8.90230469 -7.52929688 8.24023438 C-6.73168945 7.30727539 -6.73168945 7.30727539 -5.91796875 6.35546875 C-5.43094482 5.78465576 -4.9439209 5.21384277 -4.44213867 4.62573242 C-3.01735855 3.01956841 -1.53368638 1.50185891 0 0 Z " fill="#F0DC26" transform="translate(255,273)"/>
<path d="M0 0 C0.99 0.495 0.99 0.495 2 1 C2.625 4.0625 2.625 4.0625 3 7 C4.32 7.33 5.64 7.66 7 8 C7.125 14.75 7.125 14.75 6 17 C5.9603287 18.66619446 5.95615553 20.33391013 6 22 C3.79659808 18.20856066 2.89456757 14.09676496 1.875 9.875 C1.69324219 9.14667969 1.51148438 8.41835938 1.32421875 7.66796875 C0 2.28148496 0 2.28148496 0 0 Z " fill="#EBD82E" transform="translate(169,588)"/>
<path d="M0 0 C6.72045875 2.19037174 13.36724003 4.55765661 20 7 C20 7.33 20 7.66 20 8 C18.56260487 8.02712066 17.12506137 8.04645067 15.6875 8.0625 C14.48673828 8.07990234 14.48673828 8.07990234 13.26171875 8.09765625 C11 8 11 8 8 7 C8 6.01 8 5.02 8 4 C7.4225 3.855625 6.845 3.71125 6.25 3.5625 C4.16666667 3.04166667 2.08333333 2.52083333 0 2 C0 1.34 0 0.68 0 0 Z " fill="#EAD827" transform="translate(624,180)"/>
<path d="M0 0 C5.94 0 11.88 0 18 0 C18 0.66 18 1.32 18 2 C19.32 2.66 20.64 3.32 22 4 C19.08213036 3.71781919 16.166082 3.42465873 13.25 3.125 C12.425 3.04636719 11.6 2.96773437 10.75 2.88671875 C9.55117188 2.76103516 9.55117188 2.76103516 8.328125 2.6328125 C7.5949707 2.55949707 6.86181641 2.48618164 6.10644531 2.41064453 C4 2 4 2 0 0 Z " fill="#1B5286" transform="translate(552,163)"/>
<path d="M0 0 C1.01573289 3.04719867 1.0097124 3.98833004 0.44140625 7.01171875 C0.30283203 7.76904297 0.16425781 8.52636719 0.02148438 9.30664062 C-0.12998047 10.09232422 -0.28144531 10.87800781 -0.4375 11.6875 C-0.58509766 12.48478516 -0.73269531 13.28207031 -0.88476562 14.10351562 C-1.24984964 16.07025852 -1.62405289 18.03530467 -2 20 C-2.33 20 -2.66 20 -3 20 C-3.33 18.02 -3.66 16.04 -4 14 C-4.33 15.65 -4.66 17.3 -5 19 C-5.66 19 -6.32 19 -7 19 C-7 17.02 -7 15.04 -7 13 C-6.34 13 -5.68 13 -5 13 C-4.67 12.01 -4.34 11.02 -4 10 C-3.34 10 -2.68 10 -2 10 C-1.34 6.7 -0.68 3.4 0 0 Z " fill="#154D7E" transform="translate(168,438)"/>
<path d="M0 0 C2.40672398 2.40672398 2.79132175 4.11378549 3.6875 7.375 C4.09548828 8.80972656 4.09548828 8.80972656 4.51171875 10.2734375 C4.9947433 12.97064661 4.9004538 14.44972144 4 17 C3.01 16.01 2.02 15.02 1 14 C0.67 14.66 0.34 15.32 0 16 C0 10.72 0 5.44 0 0 Z " fill="#E8D530" transform="translate(848,413)"/>
<path d="M0 0 C1.5 1.375 1.5 1.375 3 3 C3 3.66 3 4.32 3 5 C3.66 5 4.32 5 5 5 C4.34 3.35 3.68 1.7 3 0 C6.08089673 2.77280706 7.68775452 5.06326356 9 9 C8.01 9 7.02 9 6 9 C5.34 9.66 4.68 10.32 4 11 C3.67 9.35 3.34 7.7 3 6 C2.34 6 1.68 6 1 6 C0.67 6.66 0.34 7.32 0 8 C0 5.36 0 2.72 0 0 Z " fill="#168730" transform="translate(672,394)"/>
<path d="M0 0 C4.05819183 0.65503282 7.53971282 1.94559121 11.3125 3.5625 C12.38113281 4.01753906 13.44976562 4.47257813 14.55078125 4.94140625 C15.76314453 5.46541016 15.76314453 5.46541016 17 6 C16.67 6.99 16.34 7.98 16 9 C13.36 8.34 10.72 7.68 8 7 C8.33 6.34 8.66 5.68 9 5 C8.071875 4.9175 7.14375 4.835 6.1875 4.75 C3 4 3 4 1.125 1.9375 C0.75375 1.298125 0.3825 0.65875 0 0 Z " fill="#144D88" transform="translate(370,834)"/>
<path d="M0 0 C-2.97 0.66 -5.94 1.32 -9 2 C-9 2.66 -9 3.32 -9 4 C-9.66 4 -10.32 4 -11 4 C-11 4.66 -11 5.32 -11 6 C-14.3 6 -17.6 6 -21 6 C-17.75881841 3.83921227 -14.71790415 2.65115273 -11.0625 1.3125 C-9.83660156 0.85488281 -8.61070312 0.39726562 -7.34765625 -0.07421875 C-4 -1 -4 -1 0 0 Z " fill="#1D852E" transform="translate(455,320)"/>
<path d="M0 0 C-0.33 1.32 -0.66 2.64 -1 4 C0.65 4.33 2.3 4.66 4 5 C0.45332822 6.25127906 -1.72253438 5.72285053 -5.25 4.5625 C-6.14203125 4.27503906 -7.0340625 3.98757813 -7.953125 3.69140625 C-8.62859375 3.46324219 -9.3040625 3.23507812 -10 3 C-9.34 2.67 -8.68 2.34 -8 2 C-7.67 1.34 -7.34 0.68 -7 0 C-3.86650268 -1.04449911 -3.01031744 -0.93423645 0 0 Z " fill="#ECD523" transform="translate(432,849)"/>
<path d="M0 0 C1.65 0.33 3.3 0.66 5 1 C0.79066147 4.50778211 -4.4255442 8 -10 8 C-9.3125 5.5625 -9.3125 5.5625 -8 3 C-4.71071522 1.8192311 -3.34715311 1.8842823 0 3 C0 2.01 0 1.02 0 0 Z " fill="#F2E226" transform="translate(666,824)"/>
<path d="M0 0 C0.33 0 0.66 0 1 0 C1.10731538 9.39605802 0.99263429 18.64087671 0 28 C-0.33 28 -0.66 28 -1 28 C-1.19384179 25.18780295 -1.38036603 22.37545804 -1.5625 19.5625 C-1.61857422 18.76005859 -1.67464844 17.95761719 -1.73242188 17.13085938 C-1.8616295 15.08937889 -1.9351273 13.04453631 -2 11 C-1.67 10.67 -1.34 10.34 -1 10 C-0.76712992 8.31816052 -0.58735834 6.6287584 -0.4375 4.9375 C-0.35371094 4.01839844 -0.26992188 3.09929687 -0.18359375 2.15234375 C-0.12300781 1.44207031 -0.06242188 0.73179687 0 0 Z " fill="#0B497D" transform="translate(863,462)"/>
<path d="M0 0 C3.96 0.33 7.92 0.66 12 1 C12 1.66 12 2.32 12 3 C13.65 3.33 15.3 3.66 17 4 C17 4.33 17 4.66 17 5 C11.41003031 5.34937311 7.03787145 4.52472638 2 2 C1.34 1.34 0.68 0.68 0 0 Z " fill="#0849A5" transform="translate(600,171)"/>
<path d="M0 0 C0.33 0.99 0.66 1.98 1 3 C-13.85 2.505 -13.85 2.505 -29 2 C-29 1.67 -29 1.34 -29 1 C-25.29176238 0.83115799 -21.58339644 0.66531406 -17.875 0.5 C-16.82828125 0.45230469 -15.7815625 0.40460937 -14.703125 0.35546875 C-9.79846413 0.13817365 -4.91101213 -0.06797249 0 0 Z " fill="#CED220" transform="translate(537,713)"/>
<path d="M0 0 C0.33 0 0.66 0 1 0 C1.75475351 8.35619957 2.13605482 16.60995285 2 25 C0 24 0 24 -0.63256836 22.23535156 C-1.0303287 19.81548862 -1.02010819 17.68187533 -0.87890625 15.234375 C-0.83056641 14.34492187 -0.78222656 13.45546875 -0.73242188 12.5390625 C-0.67634766 11.61867188 -0.62027344 10.69828125 -0.5625 9.75 C-0.48418945 8.34621094 -0.48418945 8.34621094 -0.40429688 6.9140625 C-0.27493175 4.60901113 -0.13997966 2.30442711 0 0 Z " fill="#134673" transform="translate(161,534)"/>
<path d="M0 0 C2.6486859 3.19668988 4.93992341 6.39486597 7 10 C4 11 4 11 1.875 10.375 C0 9 0 9 -0.8125 6.625 C-0.99255639 4.10421049 -0.79321253 2.3796376 0 0 Z " fill="#EAD521" transform="translate(801,313)"/>
<path d="M0 0 C1.65 0 3.3 0 5 0 C0.76405345 3.82601624 -3.78407302 5.86362904 -9 8 C-9 6.68 -9 5.36 -9 4 C-8.01 4 -7.02 4 -6 4 C-6 3.34 -6 2.68 -6 2 C-4.02 1.67 -2.04 1.34 0 1 C0 0.67 0 0.34 0 0 Z " fill="#0E4B92" transform="translate(342,202)"/>
<path d="M0 0 C0 0.33 0 0.66 0 1 C-2.97 1.66 -5.94 2.32 -9 3 C-9 3.66 -9 4.32 -9 5 C-10.65 5.33 -12.3 5.66 -14 6 C-13.67 5.01 -13.34 4.02 -13 3 C-14.65 3 -16.3 3 -18 3 C-18 2.67 -18 2.34 -18 2 C-16.12922332 1.46419503 -14.2531083 0.94701113 -12.375 0.4375 C-11.33085937 0.14746094 -10.28671875 -0.14257812 -9.2109375 -0.44140625 C-5.80977098 -1.03309337 -3.34551658 -0.75851802 0 0 Z " fill="#E4D226" transform="translate(442,170)"/>
<path d="M0 0 C2.29158942 2.89818662 4.07862366 5.83140544 5.75 9.125 C6.19859375 9.99382813 6.6471875 10.86265625 7.109375 11.7578125 C7.40328125 12.49773438 7.6971875 13.23765625 8 14 C7.67 14.66 7.34 15.32 7 16 C6.1028125 14.7934375 6.1028125 14.7934375 5.1875 13.5625 C3.19052724 10.77672016 3.19052724 10.77672016 0 10 C0.66 9.67 1.32 9.34 2 9 C2 7.68 2 6.36 2 5 C1.34 5 0.68 5 0 5 C-0.33 5.66 -0.66 6.32 -1 7 C-0.67 4.69 -0.34 2.38 0 0 Z " fill="#1E537A" transform="translate(193,661)"/>
<path d="M0 0 C0.66 0 1.32 0 2 0 C2 1.98 2 3.96 2 6 C2.66 6 3.32 6 4 6 C4 6.99 4 7.98 4 9 C3.34 9 2.68 9 2 9 C2 10.65 2 12.3 2 14 C0.00902154 11.01353231 -0.94124926 8.40312738 -2 5 C-1.34 5 -0.68 5 0 5 C0 3.35 0 1.7 0 0 Z " fill="#0E4F8D" transform="translate(841,379)"/>
<path d="M0 0 C0.99 0.33 1.98 0.66 3 1 C2.67 2.65 2.34 4.3 2 6 C2.66 6.33 3.32 6.66 4 7 C3.01 8.98 2.02 10.96 1 13 C0.67 11.68 0.34 10.36 0 9 C-0.66 9 -1.32 9 -2 9 C-2 8.01 -2 7.02 -2 6 C-1.34 6 -0.68 6 0 6 C0 4.02 0 2.04 0 0 Z " fill="#0F528F" transform="translate(197,344)"/>
<path d="M0 0 C0.33 0.66 0.66 1.32 1 2 C3.64 2 6.28 2 9 2 C6.06419434 3.95720377 5.10177164 4.30195175 1.76953125 4.6328125 C0.96708984 4.71660156 0.16464844 4.80039062 -0.66210938 4.88671875 C-1.49548828 4.96535156 -2.32886719 5.04398438 -3.1875 5.125 C-4.4549707 5.25455078 -4.4549707 5.25455078 -5.74804688 5.38671875 C-7.83128923 5.5985739 -9.91556042 5.80026777 -12 6 C-9 4 -9 4 -5.4375 3 C-1.96926675 2.29022994 -1.96926675 2.29022994 0 0 Z " fill="#D3CC43" transform="translate(561,856)"/>
<path d="M0 0 C0.99 0 1.98 0 3 0 C1.74194623 4.50802601 0.09592835 7.4912812 -3 11 C-3.66 10.34 -4.32 9.68 -5 9 C-4.34 7.35 -3.68 5.7 -3 4 C-2.34 4 -1.68 4 -1 4 C-0.67 2.68 -0.34 1.36 0 0 Z " fill="#F2DB1E" transform="translate(820,675)"/>
<path d="M0 0 C3.89830508 4.74576271 3.89830508 4.74576271 4 8 C2.0625 10.25 2.0625 10.25 0 12 C-0.19477739 10.37585622 -0.38059458 8.75063577 -0.5625 7.125 C-0.66691406 6.22007812 -0.77132812 5.31515625 -0.87890625 4.3828125 C-1 2 -1 2 0 0 Z " fill="#F5DA1A" transform="translate(825,354)"/>
<path d="M0 0 C6.47939848 0.02938503 10.09043313 1.19826322 14.78515625 5.72265625 C15.18605469 6.14417969 15.58695312 6.56570313 16 7 C15.01 7.495 15.01 7.495 14 8 C11.55667274 6.92481882 9.23245477 5.80191434 6.875 4.5625 C6.21628906 4.22412109 5.55757813 3.88574219 4.87890625 3.53710938 C3.24893453 2.69850074 1.62398091 1.85015189 0 1 C0 0.67 0 0.34 0 0 Z " fill="#E2D430" transform="translate(336,816)"/>
<path d="M0 0 C1.24546405 2.49092811 0.7767578 3.41080733 0 6 C0.66 6 1.32 6 2 6 C1.67 6.99 1.34 7.98 1 9 C-0.65 8.67 -2.3 8.34 -4 8 C-4.66 9.65 -5.32 11.3 -6 13 C-6.66 12.67 -7.32 12.34 -8 12 C-5.36 8.04 -2.72 4.08 0 0 Z " fill="#154E89" transform="translate(809,700)"/>
<path d="M0 0 C0.66 0.99 1.32 1.98 2 3 C1.030625 3.433125 0.06125 3.86625 -0.9375 4.3125 C-4.27731765 5.7014861 -4.27731765 5.7014861 -5 9 C-6.32 8.67 -7.64 8.34 -9 8 C-9 8.66 -9 9.32 -9 10 C-10.32 9.67 -11.64 9.34 -13 9 C-11.71802734 8.15115234 -11.71802734 8.15115234 -10.41015625 7.28515625 C-9.2942305 6.54433159 -8.17834728 5.80344286 -7.0625 5.0625 C-6.49853516 4.68931641 -5.93457031 4.31613281 -5.35351562 3.93164062 C-2.53966389 2.14034283 -2.53966389 2.14034283 0 0 Z " fill="#E9DC18" transform="translate(631,676)"/>
<path d="M0 0 C2.60466543 0.30872329 5.20867691 0.62181723 7.8125 0.9375 C8.55048828 1.02451172 9.28847656 1.11152344 10.04882812 1.20117188 C13.16733121 1.58216546 16.01108122 2.00369374 19 3 C19 3.66 19 4.32 19 5 C12.42465139 4.37968409 6.33307408 2.85102717 0 1 C0 0.67 0 0.34 0 0 Z " fill="#328A23" transform="translate(453,705)"/>
<path d="M0 0 C1.43410153 3.78819273 0.51009497 6.06521279 -0.9375 9.75 C-1.31777344 10.73484375 -1.69804687 11.7196875 -2.08984375 12.734375 C-2.39019531 13.48203125 -2.69054687 14.2296875 -3 15 C-2.34 15.33 -1.68 15.66 -1 16 C-1.66 16.66 -2.32 17.32 -3 18 C-3.66 17.67 -4.32 17.34 -5 17 C-4.46246904 10.81839396 -2.45417612 5.673142 0 0 Z " fill="#218325" transform="translate(326,431)"/>
<path d="M0 0 C0.33 0 0.66 0 1 0 C1 1.98 1 3.96 1 6 C1.66 6.33 2.32 6.66 3 7 C2.33035714 14.09821429 2.33035714 14.09821429 -1 17 C-1.12036664 11.22240116 -0.8320582 5.72040011 0 0 Z " fill="#EEDA2D" transform="translate(165,458)"/>
<path d="M0 0 C0.66 0 1.32 0 2 0 C2.2226746 1.43534841 2.42761906 2.87345525 2.625 4.3125 C2.74101563 5.11300781 2.85703125 5.91351563 2.9765625 6.73828125 C3 9 3 9 1 12 C0.01 9.03 -0.98 6.06 -2 3 C-1.34 3 -0.68 3 0 3 C0 2.01 0 1.02 0 0 Z " fill="#F3DB14" transform="translate(701,432)"/>
<path d="M0 0 C0 0.66 0 1.32 0 2 C-1.96722008 3.38123963 -3.96868328 4.71488126 -6 6 C-6.33 6.33 -6.66 6.66 -7 7 C-9.33297433 7.04092937 -11.66705225 7.04241723 -14 7 C-11.79459886 4.79459886 -9.78605258 3.7599273 -7 2.375 C-6.113125 1.92898437 -5.22625 1.48296875 -4.3125 1.0234375 C-2 0 -2 0 0 0 Z " fill="#EAD728" transform="translate(361,196)"/>
<path d="M0 0 C5.11365014 1.0681847 10.07227969 2.23107476 15 4 C13.68 4.33 12.36 4.66 11 5 C11 5.66 11 6.32 11 7 C10.01 7 9.02 7 8 7 C7.67 5.68 7.34 4.36 7 3 C4.69 2.34 2.38 1.68 0 1 C0 0.67 0 0.34 0 0 Z " fill="#EBDA2B" transform="translate(607,175)"/>
<path d="M0 0 C0 0.99 0 1.98 0 3 C-4.11536133 7.11536133 -7.35238619 8.75752496 -13 10 C-9.28249221 5.79759989 -4.68339021 3.00217321 0 0 Z " fill="#1A508B" transform="translate(723,793)"/>
<path d="M0 0 C1.32 0 2.64 0 4 0 C4 0.66 4 1.32 4 2 C4.66 2 5.32 2 6 2 C6 2.99 6 3.98 6 5 C5.34 5 4.68 5 4 5 C4 6.65 4 8.3 4 10 C1.81024227 6.71536341 1.00193437 3.79303725 0 0 Z " fill="#F3DB22" transform="translate(185,640)"/>
<path d="M0 0 C0.66 0.33 1.32 0.66 2 1 C1.34 3.31 0.68 5.62 0 8 C-1.32 8 -2.64 8 -4 8 C-3.6875 5.125 -3.6875 5.125 -3 2 C-2.01 1.34 -1.02 0.68 0 0 Z " fill="#F3DA10" transform="translate(324,430)"/>
<path d="M0 0 C1.125 1.75 1.125 1.75 2 4 C1.2265625 5.953125 1.2265625 5.953125 0 8 C-0.56811297 9.57403776 -1.10988621 11.1578301 -1.625 12.75 C-1.88539063 13.54921875 -2.14578125 14.3484375 -2.4140625 15.171875 C-2.60742188 15.77515625 -2.80078125 16.3784375 -3 17 C-4.56393356 13.02623171 -3.36145292 10.18622097 -2.0625 6.25 C-1.68222656 5.07953125 -1.30195313 3.9090625 -0.91015625 2.703125 C-0.60980469 1.81109375 -0.30945313 0.9190625 0 0 Z " fill="#D7CB3A" transform="translate(179,400)"/>
<path d="M0 0 C1.32 0 2.64 0 4 0 C4 0.66 4 1.32 4 2 C4.66 2 5.32 2 6 2 C6 2.66 6 3.32 6 4 C6.66 4 7.32 4 8 4 C8 4.66 8 5.32 8 6 C8.66 6 9.32 6 10 6 C9.67 7.32 9.34 8.64 9 10 C7.49702124 8.52386015 5.99768715 7.04400843 4.5 5.5625 C3.6646875 4.73878906 2.829375 3.91507812 1.96875 3.06640625 C0 1 0 1 0 0 Z " fill="#08488F" transform="translate(757,260)"/>
<path d="M0 0 C0.66 0.33 1.32 0.66 2 1 C1.38125 1.556875 0.7625 2.11375 0.125 2.6875 C-2.06106379 5.06645178 -2.98785699 6.96357096 -4 10 C-4.99 9.67 -5.98 9.34 -7 9 C-9.16715557 9.87483915 -9.16715557 9.87483915 -11 11 C-7.81316569 6.66590534 -4.13621084 3.3810038 0 0 Z " fill="#EBDB29" transform="translate(286,243)"/>
<path d="M0 0 C0.99 0.33 1.98 0.66 3 1 C2.34 2.32 1.68 3.64 1 5 C0.34 5 -0.32 5 -1 5 C-1 5.66 -1 6.32 -1 7 C-1.66 7 -2.32 7 -3 7 C-3 7.66 -3 8.32 -3 9 C-3.99 9 -4.98 9 -6 9 C-4.47291037 5.56404834 -2.40072955 2.88087546 0 0 Z " fill="#F8DA11" transform="translate(291,239)"/>
<path d="M0 0 C1.95918968 0.05991406 3.91751529 0.14867138 5.875 0.25 C6.96554687 0.29640625 8.05609375 0.3428125 9.1796875 0.390625 C12 1 12 1 13.3828125 3.046875 C13.58648437 3.69140625 13.79015625 4.3359375 14 5 C9.16371695 4.00956295 4.52381127 3.04301154 0 1 C0 0.67 0 0.34 0 0 Z " fill="#DFD535" transform="translate(390,841)"/>
<path d="M0 0 C-2.96162086 1.62477811 -5.69266927 2.51695886 -9 3.1875 C-9.845625 3.36667969 -10.69125 3.54585937 -11.5625 3.73046875 C-14.03021411 4.00334098 -15.65849506 3.76424119 -18 3 C-11.75690073 0.22528921 -6.80203375 -0.37634203 0 0 Z " fill="#23862B" transform="translate(556,709)"/>
<path d="M0 0 C0.33 0 0.66 0 1 0 C0.38487182 5.00890086 -0.2717552 10.00632136 -1 15 C-1.66 15 -2.32 15 -3 15 C-2.8858134 13.06183265 -2.75826577 11.12444901 -2.625 9.1875 C-2.55539062 8.10855469 -2.48578125 7.02960937 -2.4140625 5.91796875 C-2 3 -2 3 0 0 Z " fill="#044DAA" transform="translate(854,598)"/>
<path d="M0 0 C0.33 0 0.66 0 1 0 C1.33 3.96 1.66 7.92 2 12 C1.34 11.01 0.68 10.02 0 9 C-0.66 10.98 -1.32 12.96 -2 15 C-3.31534494 11.34142468 -2.65468309 8.91973519 -1.5625 5.25 C-1.27503906 4.26515625 -0.98757812 3.2803125 -0.69140625 2.265625 C-0.46324219 1.51796875 -0.23507813 0.7703125 0 0 Z " fill="#E4D940" transform="translate(174,417)"/>
<path d="M0 0 C4.71403788 0.47939368 8.66579301 0.96834048 13 3 C13 3.99 13 4.98 13 6 C8.52761347 4.58192622 4.28853694 2.88695626 0 1 C0 0.67 0 0.34 0 0 Z " fill="#184F8C" transform="translate(651,190)"/>
<path d="M0 0 C5.28 1.32 10.56 2.64 16 4 C16 4.33 16 4.66 16 5 C14.08247047 4.93970033 12.16582574 4.85083293 10.25 4.75 C9.18265625 4.70359375 8.1153125 4.6571875 7.015625 4.609375 C4 4 4 4 0 0 Z " fill="#1D4F81" transform="translate(416,850)"/>
<path d="M0 0 C0.33 0.66 0.66 1.32 1 2 C-1.48207465 5.72311198 -4.02513507 7.41287799 -8.3125 8.6875 C-8.869375 8.790625 -9.42625 8.89375 -10 9 C-6.83047153 5.73991357 -3.60062011 2.77762123 0 0 Z " fill="#E4D917" transform="translate(650,661)"/>
<path d="M0 0 C2 2 2 2 2 6 C2.66 6 3.32 6 4 6 C5.10844919 9.32534757 4.84454356 11.62182575 4 15 C2.25674553 12.3851183 1.58412043 10.9946567 0.875 8.0625 C0.70742188 7.39347656 0.53984375 6.72445313 0.3671875 6.03515625 C0 4 0 4 0 0 Z " fill="#144B7D" transform="translate(849,411)"/>
<path d="M0 0 C0.99 0.33 1.98 0.66 3 1 C4.1875 4.0625 4.1875 4.0625 5 7 C1.06326356 5.68775452 -1.22719294 4.08089673 -4 1 C-2.68 1.33 -1.36 1.66 0 2 C0 1.34 0 0.68 0 0 Z " fill="#E4CF26" transform="translate(308,794)"/>
<path d="M0 0 C1.32 0.66 2.64 1.32 4 2 C0.535 4.97 0.535 4.97 -3 8 C-2.25 2.25 -2.25 2.25 0 0 Z " fill="#EED720" transform="translate(756,760)"/>
<path d="M0 0 C1.46132217 2.92264434 2.34099246 4.92463146 3 8 C1.02 8.33 -0.96 8.66 -3 9 C-2.01 6.03 -1.02 3.06 0 0 Z " fill="#1E872D" transform="translate(330,422)"/>
<path d="M0 0 C1.60597325 0.45196245 3.20972508 0.91182327 4.8125 1.375 C6.15248047 1.75785156 6.15248047 1.75785156 7.51953125 2.1484375 C10 3 10 3 13 5 C11.58297487 4.85769192 10.1663904 4.71099254 8.75 4.5625 C7.56664062 4.44068359 7.56664062 4.44068359 6.359375 4.31640625 C4.17635361 4.02365007 2.1226818 3.57935581 0 3 C0 2.01 0 1.02 0 0 Z " fill="#1A4F8C" transform="translate(400,845)"/>
<path d="M0 0 C6.625 -0.25 6.625 -0.25 10 2 C9.67 2.99 9.34 3.98 9 5 C5.54074837 3.7508258 2.85306797 2.32472205 0 0 Z " fill="#EBD622" transform="translate(323,808)"/>
<path d="M0 0 C3.21880117 3.7935871 5.6163187 7.65829477 8 12 C7.34 12 6.68 12 6 12 C5.67 11.34 5.34 10.68 5 10 C4.01 9.67 3.02 9.34 2 9 C2 7.35 2 5.7 2 4 C1.34 4 0.68 4 0 4 C0 2.68 0 1.36 0 0 Z " fill="#154D89" transform="translate(211,695)"/>
<path d="M0 0 C3.52269485 -0.4025937 4.79940808 -0.13372795 7.8125 1.875 C8.534375 2.57625 9.25625 3.2775 10 4 C10 4.66 10 5.32 10 6 C6.40992874 4.66654496 3.20429093 3.1056769 0 1 C0 0.67 0 0.34 0 0 Z " fill="#12822F" transform="translate(401,681)"/>
<path d="M0 0 C-2.48952921 2.66735273 -4.63408134 4.55746343 -8 6 C-8 5.01 -8 4.02 -8 3 C-7.34 2.67 -6.68 2.34 -6 2 C-6.33 1.34 -6.66 0.68 -7 0 C-4.3333581 -1.33332095 -2.83319697 -0.67102033 0 0 Z " fill="#11518E" transform="translate(307,227)"/>
<path d="M0 0 C2.64 0.99 5.28 1.98 8 3 C7.67 4.32 7.34 5.64 7 7 C6.34 7 5.68 7 5 7 C5 6.34 5 5.68 5 5 C3.68 5 2.36 5 1 5 C0.67 3.35 0.34 1.7 0 0 Z " fill="#F4D815" transform="translate(667,198)"/>
<path d="M0 0 C0.99 0.33 1.98 0.66 3 1 C0.27521226 4.36591427 -3.06856792 5.44226276 -7 7 C-7 6.34 -7 5.68 -7 5 C-6.34 5 -5.68 5 -5 5 C-4.34 3.68 -3.68 2.36 -3 1 C-2.01 1.33 -1.02 1.66 0 2 C0 1.34 0 0.68 0 0 Z " fill="#EEDA24" transform="translate(681,817)"/>
<path d="M0 0 C0.66 0 1.32 0 2 0 C2.66 2.31 3.32 4.62 4 7 C3.34 7.66 2.68 8.32 2 9 C0.02 5.535 0.02 5.535 -2 2 C-1.34 1.67 -0.68 1.34 0 1 C0 0.67 0 0.34 0 0 Z " fill="#F5E01F" transform="translate(221,704)"/>
<path d="M0 0 C0.66 0 1.32 0 2 0 C2 0.99 2 1.98 2 3 C2.66 3 3.32 3 4 3 C3.67 4.32 3.34 5.64 3 7 C2.34 7 1.68 7 1 7 C0.67 4.69 0.34 2.38 0 0 Z M-2 5 C-1.67 5.66 -1.34 6.32 -1 7 C-0.34 7 0.32 7 1 7 C0.67 7.66 0.34 8.32 0 9 C-0.66 8.67 -1.32 8.34 -2 8 C-2 7.01 -2 6.02 -2 5 Z " fill="#0551AA" transform="translate(825,673)"/>
<path d="M0 0 C2.86724686 0.57344937 3.8614515 0.8614515 6 3 C6.99 2.67 7.98 2.34 9 2 C9.33 2.99 9.66 3.98 10 5 C9.34 5 8.68 5 8 5 C7.67 5.66 7.34 6.32 7 7 C5.83040013 6.02433888 4.66438823 5.044375 3.5 4.0625 C2.8503125 3.51722656 2.200625 2.97195313 1.53125 2.41015625 C1.0259375 1.94480469 0.520625 1.47945312 0 1 C0 0.67 0 0.34 0 0 Z " fill="#1A852E" transform="translate(373,659)"/>
<path d="M0 0 C0.66 0.66 1.32 1.32 2 2 C1.54545455 7.45454545 1.54545455 7.45454545 -1 10 C-1 8.02 -1 6.04 -1 4 C-1.66 4.99 -2.32 5.98 -3 7 C-3.33 6.34 -3.66 5.68 -4 5 C-2.52830189 1.26415094 -2.52830189 1.26415094 0 0 Z " fill="#125185" transform="translate(189,367)"/>
<path d="M0 0 C4.42857143 5.14285714 4.42857143 5.14285714 5 9 C3.35 8.67 1.7 8.34 0 8 C0 5.36 0 2.72 0 0 Z " fill="#EBD92C" transform="translate(816,337)"/>
<path d="M0 0 C0.598125 0.20625 1.19625 0.4125 1.8125 0.625 C1.8125 1.285 1.8125 1.945 1.8125 2.625 C2.4725 2.955 3.1325 3.285 3.8125 3.625 C1.1725 4.285 -1.4675 4.945 -4.1875 5.625 C-3.8575 4.635 -3.5275 3.645 -3.1875 2.625 C-3.8475 2.295 -4.5075 1.965 -5.1875 1.625 C-2.1875 -0.375 -2.1875 -0.375 0 0 Z " fill="#15872F" transform="translate(408.1875,339.375)"/>
<path d="M0 0 C-2.72478774 3.36591427 -6.06856792 4.44226276 -10 6 C-10 5.34 -10 4.68 -10 4 C-9.34 4 -8.68 4 -8 4 C-8 3.01 -8 2.02 -8 1 C-5.07175348 0.02391783 -3.04386724 -0.08226668 0 0 Z " fill="#E9DC18" transform="translate(424,329)"/>
<path d="M0 0 C0.99 0.33 1.98 0.66 3 1 C2.67 2.65 2.34 4.3 2 6 C0.33333333 6 -1.33333333 6 -3 6 C-1.125 1.125 -1.125 1.125 0 0 Z " fill="#F4DB1B" transform="translate(219,319)"/>
<path d="M0 0 C0 1.32 0 2.64 0 4 C-3.3 3.34 -6.6 2.68 -10 2 C-6.3558226 -0.4294516 -4.28758728 -0.16179575 0 0 Z " fill="#1B862E" transform="translate(477,314)"/>
<path d="M0 0 C1.65 1.65 3.3 3.3 5 5 C4.67 5.66 4.34 6.32 4 7 C3.34 6.67 2.68 6.34 2 6 C1.67 6.66 1.34 7.32 1 8 C0.34 7.34 -0.32 6.68 -1 6 C-0.625 2.875 -0.625 2.875 0 0 Z " fill="#EBD622" transform="translate(777,282)"/>
<path d="M0 0 C-1.3809002 3.33717549 -2.8201238 5.22301036 -6 7 C-8.1328125 6.57421875 -8.1328125 6.57421875 -10 6 C-8.71283353 4.99421411 -7.42011342 3.99553202 -6.125 3 C-5.40570313 2.443125 -4.68640625 1.88625 -3.9453125 1.3125 C-2 0 -2 0 0 0 Z " fill="#E7D52A" transform="translate(317,221)"/>
<path d="M0 0 C-4.75 4.875 -4.75 4.875 -7 6 C-7 4.35 -7 2.7 -7 1 C-3.375 -1.125 -3.375 -1.125 0 0 Z " fill="#F2DA1B" transform="translate(752,769)"/>
<path d="M0 0 C2.0625 0.4375 2.0625 0.4375 4 1 C4 1.66 4 2.32 4 3 C3.34 3 2.68 3 2 3 C1.34 4.32 0.68 5.64 0 7 C-0.66 6.34 -1.32 5.68 -2 5 C-1.46428571 1.46428571 -1.46428571 1.46428571 0 0 Z " fill="#F0D71D" transform="translate(786,726)"/>
<path d="M0 0 C3.28788824 3.11016455 5.83735988 6.01618925 8 10 C7.01 10 6.02 10 5 10 C4.731875 9.360625 4.46375 8.72125 4.1875 8.0625 C3.11332248 5.66868314 3.11332248 5.66868314 0 5 C0 3.35 0 1.7 0 0 Z " fill="#1C5184" transform="translate(227,719)"/>
<path d="M0 0 C0.66 0.33 1.32 0.66 2 1 C0.35 3.64 -1.3 6.28 -3 9 C-3.33 8.01 -3.66 7.02 -4 6 C-4.99 6.495 -4.99 6.495 -6 7 C-4.77065985 3.31197956 -3.06140622 2.27643027 0 0 Z " fill="#14832D" transform="translate(685,615)"/>
<path d="M0 0 C2.50298434 2.93828597 3.46930939 5.17902761 4 9 C2.35 8.67 0.7 8.34 -1 8 C-0.67 5.36 -0.34 2.72 0 0 Z " fill="#EBD92F" transform="translate(833,371)"/>
<path d="M0 0 C1.1055189 0.93590504 2.20935453 1.87379858 3.3125 2.8125 C3.92738281 3.33457031 4.54226563 3.85664063 5.17578125 4.39453125 C6.85424679 5.87172469 8.43882034 7.40039131 10 9 C9.67 9.66 9.34 10.32 9 11 C8.60167969 10.57847656 8.20335937 10.15695312 7.79296875 9.72265625 C7.26316406 9.17480469 6.73335937 8.62695312 6.1875 8.0625 C5.66542969 7.51722656 5.14335938 6.97195313 4.60546875 6.41015625 C2.94187802 4.76480908 2.94187802 4.76480908 0 4 C0 2.68 0 1.36 0 0 Z " fill="#298323" transform="translate(653,368)"/>
<path d="M0 0 C1.4606285 2.64738916 2 3.89448334 2 7 C1.34 7 0.68 7 0 7 C-0.33 7.66 -0.66 8.32 -1 9 C-1.66 8.67 -2.32 8.34 -3 8 C-1.125 2.25 -1.125 2.25 0 0 Z " fill="#ECD625" transform="translate(202,347)"/>
<path d="M0 0 C4.875 2.75 4.875 2.75 6 5 C5.34 5 4.68 5 4 5 C4 5.66 4 6.32 4 7 C3.01 7 2.02 7 1 7 C0.67 4.69 0.34 2.38 0 0 Z " fill="#F1D920" transform="translate(720,230)"/>
<path d="M0 0 C3.465 1.98 3.465 1.98 7 4 C6.01 4.33 5.02 4.66 4 5 C4 5.66 4 6.32 4 7 C3.34 7 2.68 7 2 7 C2 6.34 2 5.68 2 5 C1.01 4.67 0.02 4.34 -1 4 C-0.67 2.68 -0.34 1.36 0 0 Z " fill="#F5DA1B" transform="translate(713,225)"/>
<path d="M0 0 C0.66 0.33 1.32 0.66 2 1 C2 1.99 2 2.98 2 4 C-1.63 4.33 -5.26 4.66 -9 5 C-6.06626269 3.04417512 -3.21783702 1.43775696 0 0 Z " fill="#295B7F" transform="translate(656,832)"/>
<path d="M0 0 C0.33 0.99 0.66 1.98 1 3 C0.34 3.66 -0.32 4.32 -1 5 C-1.99 5 -2.98 5 -4 5 C-4 5.66 -4 6.32 -4 7 C-5.32 6.67 -6.64 6.34 -8 6 C-5.36 4.02 -2.72 2.04 0 0 Z " fill="#154D8B" transform="translate(732,786)"/>
<path d="M0 0 C0.99 1.32 1.98 2.64 3 4 C0.525 5.485 0.525 5.485 -2 7 C-2 6.01 -2 5.02 -2 4 C-2.66 3.67 -3.32 3.34 -4 3 C-3.34 3 -2.68 3 -2 3 C-2 2.34 -2 1.68 -2 1 C-1.34 0.67 -0.68 0.34 0 0 Z " fill="#148631" transform="translate(631,671)"/>
<path d="M0 0 C1 3 1 3 -0.4375 6.1875 C-1.2109375 7.5796875 -1.2109375 7.5796875 -2 9 C-4 6 -4 6 -4 2 C-2.68 2 -1.36 2 0 2 C0 1.34 0 0.68 0 0 Z " fill="#F5DD21" transform="translate(830,658)"/>
<path d="M0 0 C0 3.20395416 -0.74335022 5.09399739 -2 8 C-2.99 8 -3.98 8 -5 8 C-5 5 -5 5 -2.5 2.3125 C-1.675 1.549375 -0.85 0.78625 0 0 Z " fill="#F7DF14" transform="translate(657,654)"/>
<path d="M0 0 C1.65 0 3.3 0 5 0 C3.60667426 3.36720387 2.0210714 4.9859524 -1 7 C-0.67 4.69 -0.34 2.38 0 0 Z " fill="#1D882D" transform="translate(657,648)"/>
<path d="M0 0 C0.99 0 1.98 0 3 0 C3.33 2.97 3.66 5.94 4 9 C0 4.5 0 4.5 0 0 Z " fill="#104EA0" transform="translate(183,642)"/>
<path d="M0 0 C0.99 0 1.98 0 3 0 C3 0.99 3 1.98 3 3 C3.66 3 4.32 3 5 3 C5 4.65 5 6.3 5 8 C2 7 2 7 0.8125 5.125 C0 3 0 3 0 0 Z " fill="#158634" transform="translate(326,592)"/>
<path d="M0 0 C0.66 0.33 1.32 0.66 2 1 C0.68 3.31 -0.64 5.62 -2 8 C-2.99 6.68 -3.98 5.36 -5 4 C-3.36587557 2.29159719 -2.13093906 1.06546953 0 0 Z " fill="#EEDA14" transform="translate(333,414)"/>
<path d="M0 0 C0.33 0 0.66 0 1 0 C1.33 2.97 1.66 5.94 2 9 C0.35 8.67 -1.3 8.34 -3 8 C-1.125 2.25 -1.125 2.25 0 0 Z " fill="#EAD724" transform="translate(198,355)"/>
<path d="M0 0 C0.99 0.33 1.98 0.66 3 1 C2.25 3.4375 2.25 3.4375 1 6 C-1.125 6.8125 -1.125 6.8125 -3 7 C-1.125 2.25 -1.125 2.25 0 0 Z " fill="#EFD61F" transform="translate(210,333)"/>
<path d="M0 0 C4.64891954 -0.32434322 7.22406608 0.223578 11 3 C11 3.33 11 3.66 11 4 C6.44262737 3.56179109 3.42346555 3.14958831 0 0 Z " fill="#0F4DA3" transform="translate(672,200)"/>
<path d="M0 0 C2.97 0 5.94 0 9 0 C9 1.32 9 2.64 9 4 C6.03 3.01 3.06 2.02 0 1 C0 0.67 0 0.34 0 0 Z " fill="#134E8B" transform="translate(642,186)"/>
<path d="M0 0 C3.16115776 1.36983503 3.9927092 1.9890638 6 5 C4.35 5.33 2.7 5.66 1 6 C0.34 5.01 -0.32 4.02 -1 3 C-0.67 2.01 -0.34 1.02 0 0 Z " fill="#125292" transform="translate(279,776)"/>
<path d="M0 0 C1.2065625 0.0309375 1.2065625 0.0309375 2.4375 0.0625 C-2.3125 4.9375 -2.3125 4.9375 -4.5625 6.0625 C-3.48963568 0.08511307 -3.48963568 0.08511307 0 0 Z " fill="#ECD71F" transform="translate(741.5625,775.9375)"/>
<path d="M0 0 C-2.6598561 3.44216672 -5.90288286 3.99504674 -10 5 C-7.62417533 -0.26075462 -5.61350876 -0.1220328 0 0 Z " fill="#14822C" transform="translate(609,690)"/>
<path d="M0 0 C2 3 2 3 2 6 C2.66 6.33 3.32 6.66 4 7 C3.01 7 2.02 7 1 7 C0.67 6.34 0.34 5.68 0 5 C-0.99 5.66 -1.98 6.32 -3 7 C-1.125 2.25 -1.125 2.25 0 0 Z M0 8 C2 9 2 9 2 9 Z " fill="#14832E" transform="translate(340,405)"/>
<path d="M0 0 C0.66 0.99 1.32 1.98 2 3 C1.67 3.66 1.34 4.32 1 5 C-1.3140622 5.73075648 -3.64828869 6.40138258 -6 7 C-4.02 4.69 -2.04 2.38 0 0 Z " fill="#D7CB30" transform="translate(270,257)"/>
<path d="M0 0 C1.62580966 0.11398665 3.25067157 0.24155659 4.875 0.375 C5.77992188 0.44460937 6.68484375 0.51421875 7.6171875 0.5859375 C10 1 10 1 12 3 C3.96428571 3.40178571 3.96428571 3.40178571 0 0 Z " fill="#044CAB" transform="translate(570,164)"/>
<path d="M0 0 C3.3 0 6.6 0 10 0 C6.31265242 2.45823172 3.30300029 3.01242616 -1 4 C-0.67 2.68 -0.34 1.36 0 0 Z " fill="#EEDE32" transform="translate(622,842)"/>
<path d="M0 0 C1.65 0.33 3.3 0.66 5 1 C5 1.99 5 2.98 5 4 C4.34 4 3.68 4 3 4 C2.67 4.66 2.34 5.32 2 6 C1.01 4.68 0.02 3.36 -1 2 C-0.67 1.34 -0.34 0.68 0 0 Z " fill="#F2D91D" transform="translate(283,775)"/>
<path d="M0 0 C0 3.99904969 -1.72586967 5.80200422 -4 9 C-4.99 8.34 -5.98 7.68 -7 7 C-4.69 4.69 -2.38 2.38 0 0 Z " fill="#134D8E" transform="translate(764,757)"/>
<path d="M0 0 C2.40072955 2.88087546 4.47291037 5.56404834 6 9 C4.68 9 3.36 9 2 9 C2 7.35 2 5.7 2 4 C1.34 4 0.68 4 0 4 C0 2.68 0 1.36 0 0 Z " fill="#194F87" transform="translate(219,707)"/>
<path d="M0 0 C2.0625 1.6875 2.0625 1.6875 4 4 C3.75 6.75 3.75 6.75 3 9 C2.34 9 1.68 9 1 9 C0.67 6.03 0.34 3.06 0 0 Z " fill="#ECDB18" transform="translate(336,615)"/>
<path d="M0 0 C0.33 0 0.66 0 1 0 C1 1.65 1 3.3 1 5 C1.66 5 2.32 5 3 5 C2.67 7.97 2.34 10.94 2 14 C1.67 14 1.34 14 1 14 C0.04738513 9.23692563 -0.08333357 4.8333472 0 0 Z " fill="#EBD72F" transform="translate(848,598)"/>
<path d="M0 0 C2.6855594 2.6855594 3.06049974 5.37621328 4 9 C2.35 8.67 0.7 8.34 -1 8 C-0.67 5.36 -0.34 2.72 0 0 Z " fill="#E6DB20" transform="translate(321,583)"/>
<path d="M0 0 C0.66 0.33 1.32 0.66 2 1 C2.625 4.0625 2.625 4.0625 3 7 C2.01 7.495 2.01 7.495 1 8 C0.34 8.99 -0.32 9.98 -1 11 C-0.67 7.37 -0.34 3.74 0 0 Z " fill="#0B8E47" transform="translate(699,578)"/>
<path d="M0 0 C0.93423645 3.01031744 1.04449911 3.86650268 0 7 C-2.0625 7.6875 -2.0625 7.6875 -4 8 C-2.87548273 5.0280615 -1.77706209 2.66559313 0 0 Z " fill="#E2D32F" transform="translate(215,325)"/>
<path d="M0 0 C2.64 0 5.28 0 8 0 C8 1.32 8 2.64 8 4 C2.25 2.25 2.25 2.25 0 0 Z " fill="#1E5489" transform="translate(664,196)"/>
<path d="M0 0 C1.65 0.33 3.3 0.66 5 1 C4 3 4 3 1.625 4.1875 C-1 5 -1 5 -4 4 C-3.34 4 -2.68 4 -2 4 C-2 3.34 -2 2.68 -2 2 C-1.34 2 -0.68 2 0 2 C0 1.34 0 0.68 0 0 Z " fill="#0B4893" transform="translate(378,184)"/>
<path d="M0 0 C-0.33 0.66 -0.66 1.32 -1 2 C-3.28515625 2.4140625 -3.28515625 2.4140625 -6.0625 2.625 C-6.98160156 2.69976563 -7.90070312 2.77453125 -8.84765625 2.8515625 C-9.55792969 2.90054688 -10.26820313 2.94953125 -11 3 C-7.24528933 -0.16492205 -4.90567888 -0.28301994 0 0 Z " fill="#024FAF" transform="translate(616,850)"/>
<path d="M0 0 C1.4606285 2.64738916 2 3.89448334 2 7 C0.35 7.33 -1.3 7.66 -3 8 C-1.125 2.25 -1.125 2.25 0 0 Z " fill="#165084" transform="translate(824,673)"/>
<path d="M0 0 C-0.48144941 4.81449408 -0.8008587 7.60171741 -3 12 C-3 8.37 -3 4.74 -3 1 C-1 0 -1 0 0 0 Z " fill="#E5DA37" transform="translate(854,591)"/>
<path d="M0 0 C0.66 0.33 1.32 0.66 2 1 C-0.75 5.875 -0.75 5.875 -3 7 C-3.1875 4.625 -3.1875 4.625 -3 2 C-2.01 1.34 -1.02 0.68 0 0 Z " fill="#EDDB14" transform="translate(708,569)"/>
<path d="M0 0 C0 3.28176588 -0.47835901 5.10888212 -2 8 C-4.125 8.8125 -4.125 8.8125 -6 9 C-4.68775452 5.06326356 -3.08089673 2.77280706 0 0 Z " fill="#20842B" transform="translate(356,384)"/>
<path d="M0 0 C0.33 1.32 0.66 2.64 1 4 C0.01 4 -0.98 4 -2 4 C-1.67 4.99 -1.34 5.98 -1 7 C-2.32 7 -3.64 7 -5 7 C-3.70700306 4.11562221 -2.34058637 2.12780579 0 0 Z " fill="#1F862D" transform="translate(362,377)"/>
<path d="M0 0 C2.97 0.495 2.97 0.495 6 1 C6 1.66 6 2.32 6 3 C5.34 3 4.68 3 4 3 C3.67 3.99 3.34 4.98 3 6 C2.01 4.02 1.02 2.04 0 0 Z " fill="#0E508F" transform="translate(809,324)"/>
<path d="M0 0 C2.31 0 4.62 0 7 0 C4.37801226 2.15377564 2.35595828 3.40072174 -1 4 C-0.67 2.68 -0.34 1.36 0 0 Z " fill="#0D4B8D" transform="translate(356,194)"/>
<path d="M0 0 C5.75 0.75 5.75 0.75 8 3 C2.25 4.125 2.25 4.125 0 3 C0 2.01 0 1.02 0 0 Z " fill="#09498B" transform="translate(389,842)"/>
<path d="M0 0 C0.66 0.33 1.32 0.66 2 1 C1.67 2.32 1.34 3.64 1 5 C-1.97 4.505 -1.97 4.505 -5 4 C-3.36587557 2.29159719 -2.13093906 1.06546953 0 0 Z " fill="#0E4C90" transform="translate(663,829)"/>
<path d="M0 0 C0.33 0 0.66 0 1 0 C1.125 3.375 1.125 3.375 1 7 C0.34 7.66 -0.32 8.32 -1 9 C-1.625 6.1875 -1.625 6.1875 -2 3 C-1.34 2.01 -0.68 1.02 0 0 Z " fill="#F5D819" transform="translate(802,703)"/>
<path d="M0 0 C0.66 0.33 1.32 0.66 2 1 C1.34 3.97 0.68 6.94 0 10 C-0.66 9.67 -1.32 9.34 -2 9 C-2.20140476 5.37471432 -1.85776765 3.13498292 0 0 Z " fill="#19872E" transform="translate(699,438)"/>
<path d="M0 0 C1.32 0 2.64 0 4 0 C4.33 1.65 4.66 3.3 5 5 C3.35 5 1.7 5 0 5 C0 3.35 0 1.7 0 0 Z " fill="#EDD21D" transform="translate(840,396)"/>
<path d="M0 0 C0 0.66 0 1.32 0 2 C-4.15267176 5.11450382 -4.15267176 5.11450382 -7.3125 4.6875 C-7.869375 4.460625 -8.42625 4.23375 -9 4 C-2.25 0 -2.25 0 0 0 Z " fill="#DDD233" transform="translate(342,206)"/>
<path d="M0 0 C0.66 0.33 1.32 0.66 2 1 C1.01 2.32 0.02 3.64 -1 5 C-1 4.34 -1 3.68 -1 3 C-2.98 3.33 -4.96 3.66 -7 4 C-4.61426621 2.10786631 -2.92824652 0.97608217 0 0 Z " fill="#E1D22E" transform="translate(368,192)"/>
<path d="M0 0 C2.25 -0.25 2.25 -0.25 5 0 C7.3125 2 7.3125 2 9 4 C4.545 3.01 4.545 3.01 0 2 C0 1.34 0 0.68 0 0 Z " fill="#044DAD" transform="translate(411,850)"/>
<path d="M0 0 C0.99 0.33 1.98 0.66 3 1 C3 1.99 3 2.98 3 4 C1.35 4.33 -0.3 4.66 -2 5 C-1.34 3.35 -0.68 1.7 0 0 Z " fill="#F2DA18" transform="translate(658,827)"/>
<path d="M0 0 C0.66 0 1.32 0 2 0 C2 0.66 2 1.32 2 2 C2.99 2.33 3.98 2.66 5 3 C5 3.66 5 4.32 5 5 C5.66 5.66 6.32 6.32 7 7 C6.34 7.66 5.68 8.32 5 9 C3.35 6.03 1.7 3.06 0 0 Z " fill="#E2D631" transform="translate(211,694)"/>
<path d="M0 0 C-0.99 0.33 -1.98 0.66 -3 1 C-3 1.66 -3 2.32 -3 3 C-4.98 2.34 -6.96 1.68 -9 1 C-9 0.67 -9 0.34 -9 0 C-3.375 -1.125 -3.375 -1.125 0 0 Z " fill="#21892C" transform="translate(429,692)"/>
<path d="M0 0 C1.65 0 3.3 0 5 0 C4.67 1.98 4.34 3.96 4 6 C0 1.125 0 1.125 0 0 Z " fill="#F0DA29" transform="translate(203,680)"/>
<path d="M0 0 C0.99 0.495 0.99 0.495 2 1 C2 1.99 2 2.98 2 4 C2.99 4.33 3.98 4.66 5 5 C4.67 6.65 4.34 8.3 4 10 C1.04816899 7.04816899 0.91336012 4.04488053 0 0 Z " fill="#1E4F78" transform="translate(835,373)"/>
<path d="M0 0 C0.66 0.99 1.32 1.98 2 3 C0.75 4.5625 0.75 4.5625 -1 6 C-3.1875 5.6875 -3.1875 5.6875 -5 5 C-3.35 3.35 -1.7 1.7 0 0 Z " fill="#088034" transform="translate(374,365)"/>
<path d="M0 0 C0.33 0 0.66 0 1 0 C1 1.98 1 3.96 1 6 C-0.32 6.33 -1.64 6.66 -3 7 C-1.125 2.25 -1.125 2.25 0 0 Z " fill="#E7D533" transform="translate(206,340)"/>
</svg>
